<svg width="24" height="24" viewBox="0 0 24 24" fill="none" xmlns="http://www.w3.org/2000/svg">
<path d="M21.057 7.18075C21.0663 7.39195 21.0663 7.59355 21.0663 7.80475C21.0756 14.208 16.3711 21.6 7.76784 21.6C5.23039 21.6 2.73924 20.8416 0.600006 19.4208C0.970437 19.4688 1.34087 19.488 1.7113 19.488C3.81349 19.488 5.86012 18.7584 7.5178 17.4048C5.51747 17.3664 3.75793 16.0128 3.14672 14.0352C3.85053 14.1792 4.57287 14.1504 5.25817 13.9488C3.08189 13.5072 1.51682 11.52 1.50756 9.20635C1.50756 9.18715 1.50756 9.16795 1.50756 9.14875C2.15581 9.52316 2.88741 9.73436 3.62828 9.75356C1.58165 8.33275 0.942654 5.50074 2.1836 3.28314C4.56361 6.31675 8.06418 8.15035 11.8241 8.35195C11.4444 6.67195 11.963 4.90554 13.1761 3.71514C15.0561 1.88153 18.0195 1.97753 19.7976 3.92634C20.844 3.71514 21.8535 3.31194 22.7703 2.74553C22.4184 3.86874 21.6868 4.81914 20.7144 5.42394C21.6405 5.30874 22.548 5.04954 23.4 4.66554C22.7703 5.64474 21.9738 6.48955 21.057 7.18075Z" fill="#1D9BF0"/>
</svg>
